Coordinates
version=1
nRows=21
nColumns=19
inDegrees=yes

Units are S.I. units (second, meters, Newtons, ...)
If the header above contains a line with 'inDegrees', this indicates whether rotational values are in degrees (yes) or radians (no).

endheader
time	pelvis_tilt	pelvis_list	pelvis_rotation	pelvis_tx	pelvis_ty	pelvis_tz	hip_flexion_r	hip_adduction_r	hip_rotation_r	knee_angle_r	knee_angle_r_beta	ankle_angle_r	hip_flexion_l	hip_adduction_l	hip_rotation_l	knee_angle_l	knee_angle_l_beta	ankle_angle_l
     15.24000000	     -7.79776461	     -3.10004881	      1.07231658	      2.10826139	      1.02548214	      1.03459266	     26.70033519	      5.07492351	    -10.13683802	     13.60302615	      0.23741759	      3.70340871	     -9.80469121	     -8.64725509	     -8.91017735	     48.54420361	      0.84725619	     -3.81113075
     15.24666667	     -7.11759606	     -3.23602501	      1.02671727	      2.10756755	      1.02213538	      1.03543201	     26.59228864	      5.12007390	    -10.34914648	     15.73202286	      0.27457560	      3.62378039	     -9.58484468	     -8.78287817	     -7.66455391	     52.17451606	      0.91061709	     -3.47171775
     15.25333333	     -7.59708674	     -3.01220057	      1.05173017	      2.10604446	      1.01710339	      1.03584601	     27.99502600	      4.61880450	    -10.59686908	     18.67095666	      0.32586967	      3.77065485	     -7.78901614	     -8.33849852	     -5.92859904	     56.16414004	      0.98024917	     -3.23163092
     15.26000000	     -7.46301381	     -2.87826846	      0.97848588	      2.10452617	      1.01234205	      1.03607784	     28.76744852	      4.22193895	    -10.79169224	     21.90563199	      0.38232540	      4.26118205	     -6.69866038	     -7.92557181	     -4.50748782	     60.03268064	      1.04776794	     -2.97422549
     15.26666667	     -7.28926692	     -2.70042198	      0.86478589	      2.10279992	      1.00724551	      1.03608698	     29.50612275	      3.77294919	    -10.85509061	     25.32653066	      0.44203135	      5.04689814	     -5.59459909	     -7.40649134	     -3.23889971	     63.89783700	      1.11522764	     -2.71599158
     15.27333333	     -7.08929463	     -2.50010252	      0.71765898	      2.10091660	      1.00187935	      1.03592462	     30.16924747	      3.32090134	    -10.76093575	     28.76807585	      0.50209764	      6.14756239	     -4.46850594	     -6.81539580	     -2.11644833	     67.73564851	      1.18221009	     -2.40598872
     15.28000000	     -6.78330348	     -2.32066572	      0.53194496	      2.09891907	      0.99646725	      1.03568098	     30.61535583	      2.94223615	    -10.52527075	     32.06063561	      0.55956365	      7.52351821	     -3.41854887	     -6.24932960	     -1.21068734	     71.50528773	      1.24800270	     -2.05900985
     15.28666667	     -6.65770264	     -2.19422994	      0.31180192	      2.09679478	      0.99078285	      1.03545151	     31.14832539	      2.66980417	    -10.18010184	     35.16792199	      0.61379603	      9.08776225	     -2.11265975	     -5.75507771	     -0.47333524	     75.23180357	      1.31304267	     -1.66599466
     15.29333333	     -6.46848092	     -2.14765823	      0.07788495	      2.09460297	      0.98528382	      1.03525212	     31.45197965	      2.54104834	     -9.78242976	     37.96071807	      0.66253952	     10.82582509	     -0.82487529	     -5.39590295	      0.08433856	     78.85321796	      1.37624828	     -1.22536413
     15.30000000	     -6.30846597	     -2.17223219	     -0.13323678	      2.09231642	      0.98000405	      1.03510174	     31.62844017	      2.51061367	     -9.41667600	     40.43637206	      0.70574783	     12.64251012	      0.56148114	     -5.16610935	      0.54260564	     82.35254300	      1.43732302	     -0.74823056
     15.30666667	     -6.35635162	     -2.34446540	     -0.34373424	      2.09002956	      0.97483010	      1.03508975	     31.83300951	      2.68540219	     -9.07525490	     42.53210303	      0.74232524	     14.47735268	      2.24299117	     -5.17889464	      0.88362966	     85.74905078	      1.49660327	     -0.19658296
     15.31333333	     -6.41468929	     -2.60413134	     -0.49405778	      2.08778819	      0.97012372	      1.03512440	     31.86156686	      2.94023962	     -8.86058947	     44.28004161	      0.77283252	     16.24826457	      4.00906245	     -5.34796842	      1.20913397	     88.96985820	      1.55281696	      0.33220839
     15.32000000	     -6.55487482	     -2.91295156	     -0.60863375	      2.08559906	      0.96587282	      1.03531204	     31.79093137	      3.26668688	     -8.70929026	     45.68964761	      0.79743478	     17.91696395	      5.92934663	     -5.63925285	      1.50184473	     91.99128881	      1.60555087	      0.87923468
     15.32666667	     -6.72942632	     -3.30283791	     -0.59330500	      2.08355097	      0.96224388	      1.03551307	     31.54239627	      3.64848849	     -8.69654748	     46.71592156	      0.81534664	     19.43100103	      7.97877506	     -6.05563172	      1.89156704	     94.79715212	      1.65452243	      1.38770788
     15.33333333	     -6.33424110	     -3.59049406	     -0.74935898	      2.08177573	      0.95987378	      1.03604171	     30.54218594	      4.02013670	     -8.56841828	     47.52777938	      0.82951624	     20.89300983	      9.32921315	     -6.44390239	      1.96518644	     97.18194748	      1.69614496	      1.87385017
     15.34000000	     -7.16806163	     -4.00639667	     -0.49360456	      2.07981406	      0.95666313	      1.03621808	     30.68566690	      4.32720638	     -8.87725868	     48.00373819	      0.83782328	     22.02198360	     12.33466709	     -6.90491117	      2.59079649	     99.60786394	      1.73848519	      2.34316222
     15.34666667	     -7.15920433	     -4.36928995	     -0.33581681	      2.07834169	      0.95519912	      1.03664574	     29.72493921	      4.67157961	     -9.07381643	     48.15922319	      0.84053701	     23.03428512	     14.31556991	     -7.36537726	      2.95611804	    101.52966310	      1.77202691	      2.77175376
     15.35333333	     -7.26699985	     -4.61578943	     -0.17067317	      2.07693906	      0.95415538	      1.03711503	     28.78056063	      4.90579334	     -9.26253270	     48.13173832	      0.84005731	     23.92175099	     16.46613327	     -7.70766521	      3.24288806	    103.15713147	      1.80043159	      3.14904265
     15.36000000	     -7.30423423	     -4.72113612	     -0.05394441	      2.07586386	      0.95385996	      1.03767797	     27.61727840	      5.07042090	     -9.29397800	     47.86902249	      0.83547205	     24.71467946	     18.47935332	     -7.88489784	      3.38212633	    104.39590111	      1.82205220	      3.55194613
     15.36666667	     -7.41354744	     -4.76661896	      0.07585089	      2.07470012	      0.95404824	      1.03826268	     26.44569958	      5.17973685	     -9.31391599	     47.42113819	      0.82765500	     25.24211330	     20.60836593	     -7.98364390	      3.47848134	    105.35129815	      1.83872702	      3.86452994
     15.37333333	     -7.40950837	     -4.51989161	      0.02016416	      2.07383756	      0.95508600	      1.03895013	     25.05227559	      5.07786646	     -9.05961392	     46.81742971	      0.81711830	     25.65141796	     22.45601823	     -7.81850435	      3.15615092	    105.84423455	      1.84733039	      4.17648779
